# Paradigm GSPL Generated Mesh
# Vertices: 16, Faces: 12
# Material: metal

mtllib mesh.mtl
usemtl metal

v 0.000000 1.000000 0.000000
v 0.000000 1.000000 0.000000
v 0.000000 1.000000 0.000000
v 0.000000 1.000000 0.000000
v -0.866025 0.500000 0.000000
v 0.433013 0.500000 0.750000
v 0.433013 0.500000 -0.750000
v -0.866025 0.500000 -0.000000
v -0.866025 -0.500000 0.000000
v 0.433013 -0.500000 0.750000
v 0.433013 -0.500000 -0.750000
v -0.866025 -0.500000 -0.000000
v -0.000000 -1.000000 0.000000
v 0.000000 -1.000000 0.000000
v 0.000000 -1.000000 -0.000000
v -0.000000 -1.000000 -0.000000
vt 0.166667 1.000000
vt 0.500000 1.000000
vt 0.833333 1.000000
vt 1.166667 1.000000
vt 0.000000 0.666667
vt 0.333333 0.666667
vt 0.666667 0.666667
vt 1.000000 0.666667
vt 0.000000 0.333333
vt 0.333333 0.333333
vt 0.666667 0.333333
vt 1.000000 0.333333
vt -0.166667 0.000000
vt 0.166667 0.000000
vt 0.500000 0.000000
vt 0.833333 0.000000
vn 0.000000 1.000000 0.000000
vn 0.000000 1.000000 0.000000
vn 0.000000 1.000000 0.000000
vn 0.000000 1.000000 0.000000
vn -0.866025 0.500000 0.000000
vn 0.433013 0.500000 0.750000
vn 0.433013 0.500000 -0.750000
vn -0.866025 0.500000 -0.000000
vn -0.866025 -0.500000 0.000000
vn 0.433013 -0.500000 0.750000
vn 0.433013 -0.500000 -0.750000
vn -0.866025 -0.500000 -0.000000
vn -0.000000 -1.000000 0.000000
vn 0.000000 -1.000000 0.000000
vn 0.000000 -1.000000 -0.000000
vn -0.000000 -1.000000 -0.000000
f 1/1/1 5/5/5 6/6/6
f 2/2/2 6/6/6 7/7/7
f 3/3/3 7/7/7 8/8/8
f 6/6/6 5/5/5 10/10/10
f 5/5/5 9/9/9 10/10/10
f 7/7/7 6/6/6 11/11/11
f 6/6/6 10/10/10 11/11/11
f 8/8/8 7/7/7 12/12/12
f 7/7/7 11/11/11 12/12/12
f 10/10/10 9/9/9 14/14/14
f 11/11/11 10/10/10 15/15/15
f 12/12/12 11/11/11 16/16/16
